{"images":[{"uri":"猫.jpg","name":"猫.jpg"}],"accessors":[{"componentType":5126,"bufferView":0,"count":1,"type":"SCALAR","byteOffset":0},{"componentType":5123,"bufferView":1,"count":432,"type":"SCALAR","byteOffset":0},{"componentType":5123,"bufferView":1,"count":162,"type":"SCALAR","byteOffset":864},{"componentType":5123,"bufferView":1,"count":162,"type":"SCALAR","byteOffset":1188},{"componentType":5123,"bufferView":1,"count":7821,"type":"SCALAR","byteOffset":1512},{"componentType":5123,"bufferView":1,"count":252,"type":"SCALAR","byteOffset":17156},{"componentType":5123,"bufferView":1,"count":252,"type":"SCALAR","byteOffset":17660},{"componentType":5123,"bufferView":1,"count":828,"type":"SCALAR","byteOffset":18164},{"componentType":5123,"bufferView":1,"count":150,"type":"SCALAR","byteOffset":19820},{"componentType":5123,"bufferView":1,"count":150,"type":"SCALAR","byteOffset":20120},{"componentType":5126,"max":[0.07703936100006104,0.32168540358543396,0.25416964292526245],"bufferView":2,"count":92,"type":"VEC3","min":[-0.1076510101556778,0.22794827818870544,0.09437961131334305],"byteOffset":0},{"componentType":5126,"bufferView":2,"count":92,"type":"VEC3","byteOffset":12},{"componentType":5126,"bufferView":2,"count":92,"type":"VEC2","byteOffset":24},{"componentType":5126,"max":[0.06179548054933548,0.40243178606033325,0.3053864538669586],"bufferView":3,"count":37,"type":"VEC3","min":[0.009872687980532646,0.34952953457832336,0.2848203480243683],"byteOffset":0},{"componentType":5126,"bufferView":3,"count":37,"type":"VEC3","byteOffset":12},{"componentType":5126,"bufferView":3,"count":37,"type":"VEC2","byteOffset":24},{"componentType":5126,"max":[-0.040493324398994446,0.40243178606033325,0.3053864538669586],"bufferView":4,"count":37,"type":"VEC3","min":[-0.09241612255573273,0.34952953457832336,0.2848203480243683],"byteOffset":0},{"componentType":5126,"bufferView":4,"count":37,"type":"VEC3","byteOffset":12},{"componentType":5126,"bufferView":4,"count":37,"type":"VEC2","byteOffset":24},{"componentType":5126,"max":[0.10461153835058212,0.5149664282798767,0.3397488594055176],"bufferView":5,"count":1601,"type":"VEC3","min":[-0.13523218035697937,0.002112002344802022,-0.42516547441482544],"byteOffset":0},{"componentType":5126,"bufferView":5,"count":1601,"type":"VEC3","byteOffset":12},{"componentType":5126,"bufferView":5,"count":1601,"type":"VEC2","byteOffset":24},{"componentType":5126,"max":[0.13212071359157562,0.34452104568481445,0.3268396258354187],"bufferView":6,"count":108,"type":"VEC3","min":[0.02059919759631157,0.2980515956878662,0.2745489776134491],"byteOffset":0},{"componentType":5126,"bufferView":6,"count":108,"type":"VEC3","byteOffset":12},{"componentType":5126,"bufferView":6,"count":108,"type":"VEC2","byteOffset":24},{"componentType":5126,"max":[-0.051219839602708817,0.34452104568481445,0.3268396258354187],"bufferView":7,"count":108,"type":"VEC3","min":[-0.16274134814739227,0.29806727170944214,0.2746890187263489],"byteOffset":0},{"componentType":5126,"bufferView":7,"count":108,"type":"VEC3","byteOffset":12},{"componentType":5126,"bufferView":7,"count":108,"type":"VEC2","byteOffset":24},{"componentType":5126,"max":[0.05999573692679405,0.2651989758014679,0.27305495738983154],"bufferView":8,"count":200,"type":"VEC3","min":[-0.03373526409268379,0.20115283131599426,0.24121367931365967],"byteOffset":0},{"componentType":5126,"bufferView":8,"count":200,"type":"VEC3","byteOffset":12},{"componentType":5126,"bufferView":8,"count":200,"type":"VEC2","byteOffset":24},{"componentType":5126,"max":[0.06088660657405853,0.5042764544487,0.303799033164978],"bufferView":9,"count":66,"type":"VEC3","min":[0.009134789928793907,0.4135757088661194,0.27800384163856506],"byteOffset":0},{"componentType":5126,"bufferView":9,"count":66,"type":"VEC3","byteOffset":12},{"componentType":5126,"bufferView":9,"count":66,"type":"VEC2","byteOffset":24},{"componentType":5126,"max":[-0.03975542634725571,0.5042764544487,0.303799033164978],"bufferView":10,"count":66,"type":"VEC3","min":[-0.09150724858045578,0.4135757088661194,0.27800384163856506],"byteOffset":0},{"componentType":5126,"bufferView":10,"count":66,"type":"VEC3","byteOffset":12},{"componentType":5126,"bufferView":10,"count":66,"type":"VEC2","byteOffset":24}],"textures":[{"source":0,"sampler":0}],"buffers":[{"byteLength":94504,"uri":"buffer.bin"}],"bufferViews":[{"byteLength":4,"byteOffset":0,"buffer":0},{"byteLength":20420,"target":34963,"byteOffset":4,"buffer":0},{"byteLength":2944,"byteStride":32,"target":34962,"byteOffset":20424,"buffer":0},{"byteLength":1184,"byteStride":32,"target":34962,"byteOffset":23368,"buffer":0},{"byteLength":1184,"byteStride":32,"target":34962,"byteOffset":24552,"buffer":0},{"byteLength":51232,"byteStride":32,"target":34962,"byteOffset":25736,"buffer":0},{"byteLength":3456,"byteStride":32,"target":34962,"byteOffset":76968,"buffer":0},{"byteLength":3456,"byteStride":32,"target":34962,"byteOffset":80424,"buffer":0},{"byteLength":6400,"byteStride":32,"target":34962,"byteOffset":83880,"buffer":0},{"byteLength":2112,"byteStride":32,"target":34962,"byteOffset":90280,"buffer":0},{"byteLength":2112,"byteStride":32,"target":34962,"byteOffset":92392,"buffer":0}],"samplers":[{"magFilter":9729,"minFilter":9987}],"scene":0,"nodes":[{"children":[1,5,6,7,8,9,10],"name":"RootNode"},{"children":[2,3,4],"name":"cat"},{"name":"polySurface5","mesh":0},{"name":"polySurface24","mesh":1},{"name":"polySurface31","mesh":2},{"name":"polySurface33","mesh":3},{"name":"polySurface34","mesh":4},{"name":"polySurface36","mesh":5},{"name":"polySurface4","mesh":6},{"name":"polySurface43","mesh":7},{"name":"polySurface35","mesh":8},{"children":[0],"name":"Pivot","translation":[0.015310317277908325,-0.002112002344802022,0.04270830750465393]}],"materials":[{"pbrMetallicRoughness":{"roughnessFactor":0.70710676908493,"baseColorFactor":[1,1,1,1],"baseColorTexture":{"index":0},"metallicFactor":0.400000005960464},"extensions":{"KHR_materials_specular":{"specularFactor":0.3}},"name":"Material__1"}],"animations":[{"samplers":[],"channels":[],"name":"Take 001"}],"scenes":[{"nodes":[11],"name":"Root Scene"}],"asset":{"generator":"CG美术之家","source":"https://www.cgmszj.com/model/109112.html","version":"2.0"},"meshes":[{"primitives":[{"mode":4,"indices":1,"material":0,"attributes":{"POSITION":10,"TEXCOORD_0":12,"NORMAL":11}}],"name":"polySurface5"},{"primitives":[{"mode":4,"indices":2,"material":0,"attributes":{"POSITION":13,"TEXCOORD_0":15,"NORMAL":14}}],"name":"polySurface24"},{"primitives":[{"mode":4,"indices":3,"material":0,"attributes":{"POSITION":16,"TEXCOORD_0":18,"NORMAL":17}}],"name":"polySurface31"},{"primitives":[{"mode":4,"indices":4,"material":0,"attributes":{"POSITION":19,"TEXCOORD_0":21,"NORMAL":20}}],"name":"polySurface33"},{"primitives":[{"mode":4,"indices":5,"material":0,"attributes":{"POSITION":22,"TEXCOORD_0":24,"NORMAL":23}}],"name":"polySurface34"},{"primitives":[{"mode":4,"indices":6,"material":0,"attributes":{"POSITION":25,"TEXCOORD_0":27,"NORMAL":26}}],"name":"polySurface36"},{"primitives":[{"mode":4,"indices":7,"material":0,"attributes":{"POSITION":28,"TEXCOORD_0":30,"NORMAL":29}}],"name":"polySurface4"},{"primitives":[{"mode":4,"indices":8,"material":0,"attributes":{"POSITION":31,"TEXCOORD_0":33,"NORMAL":32}}],"name":"polySurface43"},{"primitives":[{"mode":4,"indices":9,"material":0,"attributes":{"POSITION":34,"TEXCOORD_0":36,"NORMAL":35}}],"name":"polySurface35"}]}